<svg width="13" height="15" viewBox="0 0 13 15" fill="none" xmlns="http://www.w3.org/2000/svg">
<path d="M10.8303 1.85818C9.63203 0.659912 8.03883 0 6.34424 0C4.64965 0 3.05646 0.659912 1.85821 1.85818C0.659912 3.05648 0 4.64965 0 6.34421C0 9.77232 3.24141 12.6236 4.98281 14.1555C5.22478 14.3684 5.43375 14.5522 5.60019 14.7076C5.80881 14.9026 6.07647 15 6.34421 15C6.61193 15 6.87964 14.9025 7.08824 14.7077C7.25473 14.5522 7.46368 14.3684 7.70564 14.1555C9.44705 12.6237 12.6885 9.77235 12.6885 6.34424C12.6885 4.64965 12.0285 3.05648 10.8303 1.85818ZM6.34424 8.9003C4.80261 8.9003 3.54844 7.64613 3.54844 6.1045C3.54844 4.56287 4.80261 3.3087 6.34424 3.3087C7.88587 3.3087 9.14004 4.56287 9.14004 6.1045C9.14004 7.64613 7.88584 8.9003 6.34424 8.9003Z" fill="#F5F5F5"/>
</svg>
